<svg enable-background="new 0 0 200 37.7" height="137.840488" viewBox="0 0 200 37.7" width="725.47625" xmlns="http://www.w3.org/2000/svg"><g fill="#52555b"><path d="m45.8 25.9c-2.1 9.4-2.7 9.8-4.9 9.8h-5v-24.8h3.5v-1.1h-9.7v1.2h2.1v24.7h-2.1v1.2h17.2v-11.1h-1.1z"/><path d="m65.4 25.9c-2 9.4-2.7 9.8-4.9 9.8h-5v-24.8h3.5v-1.1h-9.7v1.2h2.1v24.7h-2.1v1.2h17.2v-11.1h-1.1z"/><path d="m103.6 10.9h2.8v17.8l-10-18.9h-7v1.1h2.3v24.8h-2.3v1.2h6.6v-1.2h-3v-23.6l13.3 24.8h1.4v-26h2.3v-1.1h-6.4z"/><path d="m8.7 21.2 4.4-14.4 4.3 14.4zm6.9-20.8h-2.1l-10.8 35.3h-2.7v1.2h8.8v-1.2h-4.5l4-13.2h9.5l3.9 13.2h-2.5v1.2h9.6v-1.2h-3z"/><path d="m73.2 24.9 3.3-10.7 3.1 10.7zm5.9-15.4h-2.5l-8.1 26.2h-2.1v1.2h6.6v-1.2h-3.3l2.9-9.5h7.1l2.7 9.5h-2.5v1.2h8.1v-1.2h-1.4z"/></g><path d="m128.2 22.4h4.9v9.6c0 2-3.2 4.2-6.3 4.2-5.3 0-8.8-3-8.8-17.4 0-12 2.8-17.4 9.2-17.4 5.3 0 5.8 2.2 6.8 6.9.3 1.2 1 4.4 1 4.4h1.4v-10.5h-.1c-3-1.4-5.4-2.2-8.4-2.2-8.9 0-15.1 7.7-15.1 18.8 0 12 5.3 18.8 14.4 18.8 4.3 0 8-1.4 10-2.8l.1-.1v-12.3h2v-1.5h-11v1.5z" fill="#e8002a"/><path d="m193.9 9.8v1.1h2.5l-5.4 11.3-4.8-11.3h2.8v-1.1h-9.4v1.1h2.1l5.9 13.6v11.2h-2.7v1.2h9.6v-1.2h-2.8v-12l6.1-12.8h2.2v-1.1z" fill="#e8002a"/><path d="m167 24.9 3.3-10.7 3.1 10.7zm-19.7-2.6v-11.5h3.8c1.1 0 4.9.4 4.9 5.6 0 3.9-2.1 6-6 6h-2.7zm25.7-12.8h-2.5l-8.1 26.2h-2.3l-7.3-12.4c4.7-.4 7.5-3 7.5-6.9 0-4.2-3-6.7-8-6.7h-11.1v1.2h2.1v24.9h-2.1v1.2h8.8v-1.2h-2.7v-12.5h1l7.7 13.6h11v-1.2h-3.3l2.9-9.5h7.1l2.8 9.5h-2.5v1.2h8.1v-1.2h-1.4z" fill="#e8002a"/></svg>